<?xml version="1.0" encoding="utf-8"?>
<!-- Generator: Adobe Illustrator 18.0.0, SVG Export Plug-In . SVG Version: 6.00 Build 0)  -->
<!DOCTYPE svg PUBLIC "-//W3C//DTD SVG 1.1//EN" "http://www.w3.org/Graphics/SVG/1.1/DTD/svg11.dtd">
<svg version="1.1"
	 id="svg10017" xmlns:dc="http://purl.org/dc/elements/1.1/" xmlns:cc="http://web.resource.org/cc/" xmlns:rdf="http://www.w3.org/1999/02/22-rdf-syntax-ns#" xmlns:svg="http://www.w3.org/2000/svg" xmlns:sodipodi="http://sodipodi.sourceforge.net/DTD/sodipodi-0.dtd" xmlns:inkscape="http://www.inkscape.org/namespaces/inkscape" sodipodi:docname="hitachi_inspire_the_next-Logo.svg" inkscape:version="0.44" sodipodi:docbase="F:\Logos" sodipodi:version="0.32"
	 xmlns="http://www.w3.org/2000/svg" xmlns:xlink="http://www.w3.org/1999/xlink" x="0px" y="0px" viewBox="0 0 774.7 222.1"
	 enable-background="new 0 0 774.7 222.1" xml:space="preserve">
<sodipodi:namedview  inkscape:cy="520" inkscape:cx="350" inkscape:zoom="0.35" borderopacity="1.0" bordercolor="#666666" pagecolor="#ffffff" id="base" inkscape:pageshadow="2" inkscape:window-width="925" inkscape:current-layer="layer1" inkscape:pageopacity="0.0" inkscape:window-x="80" inkscape:window-y="368" inkscape:document-units="px" inkscape:window-height="573">
	</sodipodi:namedview>
<g>
	<path fill="#FFFFFF" d="M78.8,83v35.4H67.7V36.7h29.6c9,0,15.8,2,20.5,6c4.7,4,7.1,9.7,7.1,17.3c0,4.2-1.1,7.8-3.3,11
		c-2.2,3.1-5.4,5.6-9.6,7.4c4.5,1.5,7.7,3.8,9.7,7.1c2,3.3,2.9,7.3,2.9,12.2v7.7c0,2.5,0.3,4.8,0.8,6.9c0.6,2,1.5,3.7,2.9,4.9v1.3
		h-11.4c-1.5-1.3-2.4-3.1-2.8-5.6c-0.4-2.5-0.6-5-0.6-7.6v-7.5c0-4.4-1.3-8-3.9-10.7c-2.6-2.7-6-4-10.4-4H78.8z M78.8,74.3h17.4
		c6.3,0,10.8-1.2,13.5-3.6c2.8-2.4,4.1-6,4.1-10.8c0-4.6-1.3-8.2-4-10.7c-2.7-2.5-6.8-3.8-12.5-3.8H78.8V74.3z"/>
	<path fill="#FFFFFF" d="M179.2,118.4c-0.4-1.8-0.7-3.5-0.9-4.9c-0.2-1.4-0.3-2.8-0.4-4.2c-2.1,2.9-4.7,5.4-8.1,7.3
		s-6.9,2.9-10.7,2.9c-6.3,0-11.2-1.6-14.5-4.9c-3.3-3.2-5-7.7-5-13.4c0-5.8,2.3-10.3,7-13.6c4.7-3.3,11.1-4.9,19.1-4.9h12v-6
		c0-3.6-1.1-6.4-3.3-8.5c-2.2-2.1-5.2-3.1-9.2-3.1c-3.6,0-6.5,0.9-8.7,2.7c-2.2,1.8-3.3,4-3.3,6.5H143l-0.1-0.3
		c-0.2-4.4,1.9-8.5,6.3-12.1c4.4-3.7,10.1-5.5,17-5.5c6.9,0,12.4,1.8,16.6,5.3c4.2,3.5,6.3,8.5,6.3,15.1v29.3c0,2.2,0.1,4.3,0.3,6.3
		c0.2,2,0.6,4,1.2,6H179.2z M160.9,110.3c4,0,7.6-1,10.8-3.1c3.2-2.1,5.3-4.4,6.3-7.1v-9.9h-12.4c-4.5,0-8,1.1-10.7,3.4
		c-2.7,2.2-4,4.9-4,7.9c0,2.7,0.8,4.8,2.5,6.4C155.1,109.5,157.6,110.3,160.9,110.3z"/>
	<path fill="#FFFFFF" d="M202.6,89.1c0-9.8,2.1-17.7,6.3-23.6c4.2-6,10-9,17.6-9c3.6,0,6.7,0.7,9.5,2c2.8,1.3,5.1,3.2,7.1,5.7V30.8
		H254v87.6h-9l-1.3-7.5c-2,2.8-4.4,5-7.3,6.5c-2.9,1.5-6.2,2.2-10.1,2.2c-7.4,0-13.2-2.7-17.4-8.1c-4.2-5.4-6.3-12.4-6.3-21.2V89.1z
		 M213.7,90.3c0,6.1,1.3,11.1,3.8,14.7c2.5,3.7,6.4,5.5,11.7,5.5c3.3,0,6.1-0.7,8.3-2.2c2.2-1.5,4.1-3.6,5.5-6.3V73.7
		c-1.4-2.5-3.3-4.5-5.5-6c-2.3-1.5-5-2.2-8.2-2.2c-5.3,0-9.2,2.2-11.8,6.6s-3.8,10.1-3.8,17.1V90.3z"/>
	<path fill="#FFFFFF" d="M282.5,42.1h-11.1V30.8h11.1V42.1z M282.5,118.4h-11.1V57.6h11.1V118.4z"/>
	<path fill="#FFFFFF" d="M296.9,87.5c0-9,2.4-16.4,7.3-22.2c4.9-5.8,11.5-8.7,19.8-8.7c8.4,0,15.1,2.9,20,8.7
		c4.9,5.8,7.3,13.2,7.3,22.2v1.2c0,9.1-2.4,16.5-7.3,22.2c-4.9,5.8-11.5,8.7-19.9,8.7c-8.4,0-15-2.9-19.9-8.7s-7.3-13.2-7.3-22.2
		V87.5z M308,88.7c0,6.4,1.4,11.7,4.1,15.9c2.7,4.2,6.8,6.3,12.1,6.3c5.3,0,9.3-2.1,12-6.3c2.7-4.2,4.1-9.5,4.1-15.9v-1.2
		c0-6.4-1.4-11.7-4.1-15.9c-2.8-4.2-6.8-6.3-12.1-6.3c-5.3,0-9.3,2.1-12,6.3c-2.7,4.2-4.1,9.5-4.1,15.9V88.7z"/>
	<path fill="#FFFFFF" d="M406.7,96.7c0-2.9-1-5.1-2.9-6.7s-5.3-3.2-10.3-5c-10.3-3.3-18-6.8-23-10.5c-5-3.7-7.5-9.1-7.5-16.2
		c0-6.9,3-12.4,8.9-16.6c5.9-4.2,13.5-6.3,22.6-6.3c9.1,0,16.5,2.3,22.3,7s8.6,10.7,8.4,18l-0.1,0.3h-18.4c0-3.3-1.1-5.9-3.3-7.9
		c-2.2-2-5.3-3.1-9.2-3.1c-3.8,0-6.8,0.8-9,2.5c-2.2,1.7-3.3,3.8-3.3,6.2c0,2.4,1.1,4.3,3.3,5.8c2.2,1.4,6.3,3.2,12.3,5.4
		c9.3,2.8,16.3,6.2,21,10.2c4.7,4,7.1,9.6,7.1,16.7c0,7.2-2.8,12.8-8.4,16.9c-5.6,4.1-13,6.1-22.3,6.1c-9.3,0-17.3-2.3-24.1-7
		c-6.8-4.7-10.1-11.4-9.9-20.1l0.1-0.3h18.5c0,4.7,1.3,8.1,3.8,10.1c2.5,2,6.4,3,11.6,3c3.9,0,6.9-0.8,8.8-2.4
		C405.7,101.3,406.7,99.3,406.7,96.7z"/>
	<path fill="#FFFFFF" d="M499.6,89.7l0.1,0.3c-0.4,9.6-3.2,16.9-8.5,22c-5.3,5.1-13,7.6-23.1,7.6c-10.1,0-18.3-3.1-24.7-9.3
		C437.2,104,434,96,434,86.1V69c0-9.9,3-17.9,9.1-24.2c6.1-6.2,14-9.4,23.7-9.4c10.3,0,18.2,2.6,23.7,7.8c5.5,5.2,8.6,12.6,9.3,22.2
		l-0.1,0.3h-18.5c-0.3-5.3-1.5-9.3-3.6-11.9c-2.1-2.6-5.7-3.9-10.8-3.9c-4.3,0-7.7,1.7-10.2,5.2c-2.5,3.5-3.7,8-3.7,13.6v17.2
		c0,5.7,1.3,10.2,4,13.7c2.7,3.5,6.4,5.2,11.1,5.2c4.6,0,7.8-1.2,9.7-3.7s3-6.3,3.3-11.6H499.6z"/>
	<path fill="#FFFFFF" d="M553.3,102.5h-25.8l-4.6,15.9h-19.1l26.4-81.8h20.4l26.5,81.8H558L553.3,102.5z M531.7,87.9h17.4l-8.5-29.3
		h-0.3L531.7,87.9z"/>
	<path fill="#FFFFFF" d="M601.9,90.4v28h-19V36.6h33.2c9.7,0,17.4,2.5,23.1,7.4c5.7,5,8.5,11.5,8.5,19.5c0,8.1-2.8,14.5-8.5,19.5
		c-5.7,4.9-13.4,7.4-23.1,7.4H601.9z M601.9,75.8h14.2c4.1,0,7.3-1.1,9.4-3.4c2.2-2.3,3.2-5.2,3.2-8.7c0-3.6-1.1-6.6-3.2-8.9
		c-2.2-2.3-5.3-3.5-9.4-3.5h-14.2V75.8z"/>
	<path fill="#FFFFFF" d="M709.5,83.4h-32.1v20.4h37.8v14.6h-56.8V36.6h57v14.6h-37.9v17.6h32.1V83.4z"/>
</g>
<g>
	<path fill="#FFFFFF" d="M33,146.5v8.6h7.4v3H33V180c0,2.2,0.4,3.8,1.2,4.7c0.8,0.9,1.9,1.4,3.2,1.4c0.6,0,1.2,0,1.8-0.1
		c0.6-0.1,1.2-0.1,2-0.3l0.6,2.8c-0.6,0.3-1.4,0.5-2.3,0.6c-0.9,0.1-1.8,0.2-2.7,0.2c-2.4,0-4.2-0.7-5.5-2.2s-2-3.9-2-7.1v-21.9
		h-5.8v-3h5.8v-8.6H33z"/>
	<path fill="#FFFFFF" d="M52,160.8c1.1-2,2.6-3.6,4.5-4.7s4-1.7,6.5-1.7c3.5,0,6.3,1.1,8.2,3.3c1.9,2.2,2.8,5.6,2.8,10.2v20.7h-3.7
		v-20.8c0-3.7-0.7-6.3-2.2-7.9c-1.4-1.6-3.4-2.4-6-2.4c-2.5,0-4.7,0.7-6.4,2c-1.7,1.3-3,3.1-3.8,5.3v23.7h-3.7v-48.5H52V160.8z"/>
	<path fill="#FFFFFF" d="M96.4,189.4c-4.2,0-7.7-1.6-10.5-4.7s-4.2-7-4.2-11.8v-1.7c0-4.8,1.4-8.8,4.1-12c2.8-3.2,6.1-4.8,10.1-4.8
		c4.1,0,7.4,1.3,9.7,3.9c2.4,2.6,3.5,6.1,3.5,10.4v3.2H85.4v0.9c0,3.8,1,6.9,3,9.5c2,2.5,4.7,3.8,7.9,3.8c2.3,0,4.3-0.3,5.9-1
		c1.6-0.6,3-1.6,4.2-2.8l1.6,2.5c-1.3,1.3-2.9,2.4-4.8,3.2C101.3,189,99,189.4,96.4,189.4z M95.9,157.6c-2.8,0-5.1,1-6.9,3.1
		c-1.9,2.1-3,4.7-3.3,7.9l0.1,0.2h19.7v-0.9c0-2.9-0.9-5.4-2.6-7.3S98.8,157.6,95.9,157.6z"/>
	<path fill="#FFFFFF" d="M134.7,188.7v-30.6h-5.6v-3h5.6v-4.9c0-3.4,0.8-6,2.5-7.8c1.7-1.8,4.1-2.8,7.1-2.8c0.7,0,1.4,0.1,2.1,0.2
		c0.7,0.1,1.4,0.2,2.1,0.4l-0.5,3.1c-0.5-0.1-1-0.2-1.5-0.3c-0.5-0.1-1.1-0.1-1.8-0.1c-2,0-3.6,0.6-4.7,1.9
		c-1.1,1.3-1.6,3.1-1.6,5.4v4.9h8v3h-8v30.6H134.7z"/>
	<path fill="#FFFFFF" d="M175,183.2c-1.1,2-2.5,3.5-4.4,4.6s-4,1.6-6.5,1.6c-3.5,0-6.3-1.2-8.3-3.6c-2-2.4-3-6.1-3-11.2v-19.5h3.7
		v19.6c0,4.1,0.7,7.1,2.1,8.8c1.4,1.8,3.4,2.7,6,2.7c2.8,0,5.1-0.6,6.7-1.9c1.7-1.3,2.8-3,3.5-5.2v-24h3.7v33.6h-3.3L175,183.2z"/>
	<path fill="#FFFFFF" d="M194.2,146.5v8.6h7.4v3h-7.4V180c0,2.2,0.4,3.8,1.2,4.7c0.8,0.9,1.9,1.4,3.2,1.4c0.6,0,1.2,0,1.8-0.1
		c0.6-0.1,1.2-0.1,2-0.3l0.6,2.8c-0.6,0.3-1.4,0.5-2.3,0.6c-0.9,0.1-1.8,0.2-2.7,0.2c-2.4,0-4.2-0.7-5.5-2.2s-2-3.9-2-7.1v-21.9
		h-5.8v-3h5.8v-8.6H194.2z"/>
	<path fill="#FFFFFF" d="M231.5,183.2c-1.1,2-2.5,3.5-4.4,4.6s-4,1.6-6.5,1.6c-3.5,0-6.3-1.2-8.3-3.6c-2-2.4-3-6.1-3-11.2v-19.5h3.7
		v19.6c0,4.1,0.7,7.1,2.1,8.8c1.4,1.8,3.4,2.7,6,2.7c2.8,0,5.1-0.6,6.7-1.9c1.7-1.3,2.8-3,3.5-5.2v-24h3.7v33.6h-3.3L231.5,183.2z"
		/>
	<path fill="#FFFFFF" d="M260.4,158.3l-2.8-0.2c-2.3,0-4.3,0.7-5.8,2c-1.5,1.3-2.6,3.1-3.2,5.4v23.2h-3.7v-33.6h3.3l0.5,5.6v0.4
		c1-2.1,2.3-3.7,3.9-4.8c1.6-1.2,3.6-1.7,5.8-1.7c0.5,0,0.9,0,1.4,0.1c0.4,0.1,0.8,0.2,1.1,0.2L260.4,158.3z"/>
	<path fill="#FFFFFF" d="M278.6,189.4c-4.2,0-7.7-1.6-10.5-4.7s-4.2-7-4.2-11.8v-1.7c0-4.8,1.4-8.8,4.1-12c2.8-3.2,6.1-4.8,10.1-4.8
		c4.1,0,7.4,1.3,9.7,3.9c2.4,2.6,3.5,6.1,3.5,10.4v3.2h-23.7v0.9c0,3.8,1,6.9,3,9.5c2,2.5,4.7,3.8,7.9,3.8c2.3,0,4.3-0.3,5.9-1
		c1.6-0.6,3-1.6,4.2-2.8l1.6,2.5c-1.3,1.3-2.9,2.4-4.8,3.2C283.6,189,281.3,189.4,278.6,189.4z M278.2,157.6c-2.8,0-5.1,1-6.9,3.1
		c-1.9,2.1-3,4.7-3.3,7.9l0.1,0.2h19.7v-0.9c0-2.9-0.9-5.4-2.6-7.3S281.1,157.6,278.2,157.6z"/>
	<path fill="#FFFFFF" d="M312.2,171.4c0-5,1.4-9,4.1-12.2c2.7-3.2,6.3-4.8,10.8-4.8c4.5,0,8.1,1.6,10.8,4.8
		c2.7,3.2,4.1,7.2,4.1,12.2v1c0,5-1.4,9-4.1,12.2c-2.7,3.2-6.3,4.7-10.8,4.7c-4.5,0-8.1-1.6-10.8-4.7c-2.7-3.2-4.1-7.2-4.1-12.2
		V171.4z M315.9,172.4c0,3.9,1,7.2,3,9.8s4.7,4,8.2,4c3.5,0,6.2-1.3,8.2-4s3-5.9,3-9.8v-1c0-3.8-1-7.1-3-9.8c-2-2.7-4.7-4-8.2-4
		s-6.2,1.3-8.2,4c-2,2.7-3,5.9-3,9.8V172.4z"/>
	<path fill="#FFFFFF" d="M352.4,188.7v-30.6h-5.6v-3h5.6v-4.9c0-3.4,0.8-6,2.5-7.8c1.7-1.8,4.1-2.8,7.1-2.8c0.7,0,1.4,0.1,2.1,0.2
		c0.7,0.1,1.4,0.2,2.1,0.4l-0.5,3.1c-0.5-0.1-1-0.2-1.5-0.3c-0.5-0.1-1.1-0.1-1.8-0.1c-2,0-3.6,0.6-4.7,1.9
		c-1.1,1.3-1.6,3.1-1.6,5.4v4.9h8v3h-8v30.6H352.4z"/>
	<path fill="#FFFFFF" d="M390.3,145.4h-3.7v-5.2h3.7V145.4z M390.3,188.7h-3.7v-33.6h3.7V188.7z"/>
	<path fill="#FFFFFF" d="M403.9,155.1l0.3,5.9c1.1-2.1,2.5-3.7,4.4-4.8c1.8-1.1,4-1.7,6.5-1.7c3.6,0,6.4,1.1,8.3,3.3
		c1.9,2.2,2.9,5.7,2.9,10.4v20.5h-3.7v-20.5c0-3.9-0.7-6.6-2.2-8.2c-1.4-1.6-3.5-2.4-6.1-2.4c-2.6,0-4.7,0.7-6.4,2.1
		s-2.8,3.2-3.6,5.5v23.5h-3.7v-33.6H403.9z"/>
	<path fill="#FFFFFF" d="M441.9,146.5v8.6h7.4v3h-7.4V180c0,2.2,0.4,3.8,1.2,4.7c0.8,0.9,1.9,1.4,3.2,1.4c0.6,0,1.2,0,1.8-0.1
		c0.6-0.1,1.2-0.1,2-0.3l0.6,2.8c-0.6,0.3-1.4,0.5-2.3,0.6c-0.9,0.1-1.8,0.2-2.7,0.2c-2.4,0-4.2-0.7-5.5-2.2c-1.3-1.5-2-3.9-2-7.1
		v-21.9h-5.8v-3h5.8v-8.6H441.9z"/>
	<path fill="#FFFFFF" d="M469.8,189.4c-4.2,0-7.7-1.6-10.5-4.7c-2.8-3.1-4.2-7-4.2-11.8v-1.7c0-4.8,1.4-8.8,4.2-12s6.1-4.8,10.1-4.8
		c4.1,0,7.4,1.3,9.7,3.9c2.4,2.6,3.5,6.1,3.5,10.4v3.2h-23.7v0.9c0,3.8,1,6.9,3,9.5c2,2.5,4.7,3.8,7.9,3.8c2.3,0,4.3-0.3,5.9-1
		c1.6-0.6,3-1.6,4.2-2.8l1.6,2.5c-1.3,1.3-2.9,2.4-4.8,3.2C474.8,189,472.5,189.4,469.8,189.4z M469.3,157.6c-2.8,0-5.1,1-6.9,3.1
		c-1.9,2.1-3,4.7-3.3,7.9l0.1,0.2h19.7v-0.9c0-2.9-0.9-5.4-2.6-7.3C474.6,158.6,472.3,157.6,469.3,157.6z"/>
	<path fill="#FFFFFF" d="M505.4,158.3l-2.8-0.2c-2.3,0-4.3,0.7-5.8,2c-1.5,1.3-2.6,3.1-3.2,5.4v23.2H490v-33.6h3.3l0.5,5.6v0.4
		c1-2.1,2.3-3.7,3.9-4.8c1.6-1.2,3.6-1.7,5.8-1.7c0.5,0,0.9,0,1.4,0.1c0.4,0.1,0.8,0.2,1.1,0.2L505.4,158.3z"/>
	<path fill="#FFFFFF" d="M514.9,155.1l0.3,5.9c1.1-2.1,2.5-3.7,4.4-4.8c1.8-1.1,4-1.7,6.5-1.7c3.6,0,6.4,1.1,8.3,3.3
		c1.9,2.2,2.9,5.7,2.9,10.4v20.5h-3.7v-20.5c0-3.9-0.7-6.6-2.2-8.2c-1.4-1.6-3.5-2.4-6.1-2.4c-2.6,0-4.7,0.7-6.4,2.1
		s-2.8,3.2-3.6,5.5v23.5h-3.7v-33.6H514.9z"/>
	<path fill="#FFFFFF" d="M559.7,189.4c-4.2,0-7.7-1.6-10.5-4.7c-2.8-3.1-4.2-7-4.2-11.8v-1.7c0-4.8,1.4-8.8,4.2-12s6.1-4.8,10.1-4.8
		c4.1,0,7.4,1.3,9.7,3.9c2.4,2.6,3.5,6.1,3.5,10.4v3.2h-23.7v0.9c0,3.8,1,6.9,3,9.5c2,2.5,4.7,3.8,7.9,3.8c2.3,0,4.3-0.3,5.9-1
		c1.6-0.6,3-1.6,4.2-2.8l1.6,2.5c-1.3,1.3-2.9,2.4-4.8,3.2C564.7,189,562.3,189.4,559.7,189.4z M559.2,157.6c-2.8,0-5.1,1-6.9,3.1
		c-1.9,2.1-3,4.7-3.3,7.9l0.1,0.2h19.7v-0.9c0-2.9-0.9-5.4-2.6-7.3C564.5,158.6,562.1,157.6,559.2,157.6z"/>
	<path fill="#FFFFFF" d="M585.7,146.5v8.6h7.4v3h-7.4V180c0,2.2,0.4,3.8,1.2,4.7c0.8,0.9,1.9,1.4,3.2,1.4c0.6,0,1.2,0,1.8-0.1
		c0.6-0.1,1.2-0.1,2-0.3l0.6,2.8c-0.6,0.3-1.4,0.5-2.3,0.6c-0.9,0.1-1.8,0.2-2.7,0.2c-2.4,0-4.2-0.7-5.5-2.2c-1.3-1.5-2-3.9-2-7.1
		v-21.9h-5.8v-3h5.8v-8.6H585.7z"/>
	<path fill="#FFFFFF" d="M631.9,158.3l-2.8-0.2c-2.3,0-4.3,0.7-5.8,2c-1.5,1.3-2.6,3.1-3.2,5.4v23.2h-3.7v-33.6h3.3l0.5,5.6v0.4
		c1-2.1,2.3-3.7,3.9-4.8c1.6-1.2,3.6-1.7,5.8-1.7c0.5,0,0.9,0,1.4,0.1c0.4,0.1,0.8,0.2,1.1,0.2L631.9,158.3z"/>
	<path fill="#FFFFFF" d="M659.4,188.7c-0.2-1.1-0.4-2.1-0.5-3c-0.1-0.8-0.2-1.7-0.2-2.5c-1.2,1.8-2.9,3.2-5,4.4s-4.4,1.7-7,1.7
		c-3.3,0-5.8-0.9-7.6-2.6c-1.8-1.7-2.7-4.1-2.7-7c0-3.1,1.3-5.6,4-7.5c2.7-1.9,6.3-2.8,10.9-2.8h7.4v-4.2c0-2.4-0.8-4.3-2.3-5.7
		c-1.5-1.4-3.7-2.1-6.5-2.1c-2.6,0-4.7,0.7-6.5,2s-2.6,2.9-2.6,4.8l-3.4,0l-0.1-0.2c-0.1-2.5,1-4.8,3.4-6.7s5.5-3,9.2-3
		c3.7,0,6.7,0.9,9,2.8c2.3,1.9,3.4,4.6,3.4,8.1v16.5c0,1.2,0.1,2.3,0.2,3.5s0.4,2.2,0.7,3.3H659.4z M647.2,186.1
		c2.7,0,5-0.6,7.1-1.9s3.5-2.9,4.4-4.8v-7h-7.5c-3.4,0-6.1,0.7-8.1,2.2c-2,1.4-3,3.2-3,5.4c0,1.8,0.6,3.3,1.9,4.5
		S645,186.1,647.2,186.1z"/>
	<path fill="#FFFFFF" d="M670.9,172.2c0-5.4,1.1-9.7,3.4-12.9c2.3-3.2,5.4-4.8,9.5-4.8c2.3,0,4.4,0.5,6.1,1.5c1.7,1,3.1,2.4,4.3,4.2
		v-20h3.7v48.5h-3.3l-0.3-4.9c-1.1,1.8-2.6,3.1-4.3,4.1s-3.8,1.4-6.2,1.4c-4,0-7.2-1.5-9.4-4.5c-2.3-3-3.4-7-3.4-12V172.2z
		 M674.6,172.8c0,4.1,0.8,7.3,2.4,9.7c1.6,2.4,4.1,3.6,7.4,3.6c2.4,0,4.4-0.5,6-1.6c1.6-1.1,2.9-2.6,3.7-4.5v-15.9
		c-0.8-2-2.1-3.5-3.6-4.8c-1.6-1.2-3.6-1.8-6.1-1.8c-3.3,0-5.7,1.3-7.4,4s-2.5,6.2-2.5,10.5V172.8z"/>
	<path fill="#FFFFFF" d="M712,145.4h-3.7v-5.2h3.7V145.4z M712,188.7h-3.7v-33.6h3.7V188.7z"/>
	<path fill="#FFFFFF" d="M720.2,171.4c0-5,1.4-9,4.1-12.2s6.3-4.8,10.8-4.8c4.5,0,8.1,1.6,10.8,4.8s4.1,7.2,4.1,12.2v1
		c0,5-1.4,9-4.1,12.2c-2.7,3.2-6.3,4.7-10.8,4.7c-4.5,0-8.1-1.6-10.8-4.7c-2.7-3.2-4.1-7.2-4.1-12.2V171.4z M723.9,172.4
		c0,3.9,1,7.2,3,9.8s4.7,4,8.2,4c3.5,0,6.2-1.3,8.2-4c2-2.6,3-5.9,3-9.8v-1c0-3.8-1-7.1-3-9.8c-2-2.7-4.7-4-8.2-4s-6.2,1.3-8.2,4
		c-2,2.7-3,5.9-3,9.8V172.4z"/>
</g>
</svg>
